<svg width="40" height="40" viewBox="0 0 40 40" fill="none" xmlns="http://www.w3.org/2000/svg">
<path d="M24.9333 19.5C24.8655 19.0686 24.7127 18.6549 24.4838 18.283C24.255 17.9111 23.9545 17.5883 23.6 17.3333L15.2667 11.3833C14.1 10.55 12.55 10.55 11.4 11.3833L3.06666 17.3333C2.18332 17.9667 1.66666 18.9667 1.66666 20.05V31.6667C1.66666 33.5 3.16666 35 4.99999 35H9.99999V25H16.6667V35H19.4667C18.75 33.4833 18.3333 31.8 18.3333 30C18.3331 27.8059 18.9524 25.6564 20.12 23.7988C21.2876 21.9412 22.9561 20.4511 24.9333 19.5ZM38.3333 21.85V8.28333C38.3333 6.46667 36.8667 5 35.05 5H19.95C18.1333 5 16.6667 6.46667 16.6667 8.28333L16.7 8.36667C16.8667 8.46667 17.05 8.55 17.2 8.66667L25.5333 14.6167C26.85 15.55 27.7667 16.95 28.1333 18.4833C28.75 18.4 29.3667 18.3333 30 18.3333C33.2667 18.3333 36.2167 19.6833 38.3333 21.85ZM28.3333 11.6667H31.6667V15H28.3333V11.6667Z" fill="#605F5F"/>
<path fill-rule="evenodd" clip-rule="evenodd" d="M29.3333 21C33.9333 21 37.6667 24.7333 37.6667 29.3333C37.6667 33.9333 33.9333 37.6667 29.3333 37.6667C24.7333 37.6667 21 33.9333 21 29.3333C21 24.7333 24.7333 21 29.3333 21ZM33.6596 24.3656C33.8746 24.5857 33.9955 24.8834 33.996 25.1938L34 28.1063C34.0002 28.2611 33.9704 28.4144 33.9123 28.5575C33.8542 28.7006 33.769 28.8305 33.6615 28.94L33.5182 29.0865C33.3429 28.7315 33.055 28.4471 32.7013 28.2795C32.3476 28.1118 31.9486 28.0706 31.569 28.1625C31.1894 28.2545 30.8514 28.4742 30.6097 28.7862C30.3679 29.0981 30.2366 29.484 30.237 29.8814V29.9185C29.9889 29.9837 29.7692 30.131 29.6124 30.3374C29.4555 30.5437 29.3704 30.7972 29.3705 31.0581V33.1292C29.1679 33.1961 28.9512 33.2047 28.7441 33.154C28.5371 33.1034 28.3478 32.9954 28.1972 32.8421L25.3383 29.9296C25.2309 29.8203 25.1458 29.6904 25.0878 29.5475C25.0297 29.4046 24.9999 29.2515 25 29.0969C25.0001 28.9422 25.0301 28.7891 25.0884 28.6463C25.1466 28.5035 25.2319 28.3738 25.3394 28.2645L29.1995 24.3436C29.3077 24.2337 29.4362 24.1468 29.5776 24.0878C29.719 24.0288 29.8705 23.999 30.0233 24L32.8481 24.0189C33.1529 24.0209 33.4446 24.1455 33.6596 24.3656ZM31.2727 26.7672C31.381 26.8775 31.528 26.9395 31.6812 26.9395C31.8344 26.9395 31.9813 26.8775 32.0897 26.7672C32.198 26.6569 32.2589 26.5072 32.2589 26.3512C32.2589 26.1951 32.198 26.0455 32.0897 25.9351C31.9813 25.8248 31.8344 25.7628 31.6812 25.7628C31.528 25.7628 31.381 25.8248 31.2727 25.9351C31.1644 26.0455 31.1035 26.1951 31.1035 26.3512C31.1035 26.5072 31.1644 26.6569 31.2727 26.7672ZM30.8147 30.4698V29.8814C30.8147 29.5693 30.9364 29.27 31.1531 29.0493C31.3697 28.8286 31.6636 28.7047 31.97 28.7047C32.2765 28.7047 32.5703 28.8286 32.787 29.0493C33.0037 29.27 33.1254 29.5693 33.1254 29.8814V30.4698H33.4142C33.5674 30.4698 33.7144 30.5318 33.8227 30.6421C33.931 30.7524 33.9919 30.9021 33.9919 31.0581V33.4116C33.9919 33.5677 33.931 33.7173 33.8227 33.8277C33.7144 33.938 33.5674 34 33.4142 34H30.5258C30.3726 34 30.2257 33.938 30.1174 33.8277C30.009 33.7173 29.9482 33.5677 29.9482 33.4116V31.0581C29.9482 30.9021 30.009 30.7524 30.1174 30.6421C30.2257 30.5318 30.3726 30.4698 30.5258 30.4698H30.8147ZM31.3924 29.8814V30.4698H32.5477V29.8814C32.5477 29.7253 32.4868 29.5757 32.3785 29.4654C32.2702 29.355 32.1232 29.293 31.97 29.293C31.8168 29.293 31.6699 29.355 31.5616 29.4654C31.4532 29.5757 31.3924 29.7253 31.3924 29.8814ZM32.2764 31.9229C32.1951 31.8401 32.0849 31.7936 31.97 31.7936C31.8551 31.7936 31.7449 31.8401 31.6637 31.9229C31.5824 32.0056 31.5368 32.1178 31.5368 32.2349C31.5368 32.3519 31.5824 32.4642 31.6637 32.5469C31.7449 32.6297 31.8551 32.6762 31.97 32.6762C32.0849 32.6762 32.1951 32.6297 32.2764 32.5469C32.3576 32.4642 32.4033 32.3519 32.4033 32.2349C32.4033 32.1178 32.3576 32.0056 32.2764 31.9229Z" fill="#605F5F"/>
</svg>
