<svg width="40" height="40" viewBox="0 0 40 40" fill="none" xmlns="http://www.w3.org/2000/svg">
<path d="M24.9333 19.5C24.8655 19.0686 24.7127 18.6549 24.4838 18.283C24.255 17.9111 23.9545 17.5883 23.6 17.3333L15.2667 11.3833C14.1 10.55 12.55 10.55 11.4 11.3833L3.06666 17.3333C2.18332 17.9667 1.66666 18.9667 1.66666 20.05V31.6667C1.66666 33.5 3.16666 35 4.99999 35H9.99999V25H16.6667V35H19.4667C18.75 33.4833 18.3333 31.8 18.3333 30C18.3331 27.8059 18.9524 25.6564 20.12 23.7988C21.2876 21.9412 22.9561 20.4511 24.9333 19.5ZM38.3333 21.85V8.28333C38.3333 6.46667 36.8667 5 35.05 5H19.95C18.1333 5 16.6667 6.46667 16.6667 8.28333L16.7 8.36667C16.8667 8.46667 17.05 8.55 17.2 8.66667L25.5333 14.6167C26.85 15.55 27.7667 16.95 28.1333 18.4833C28.75 18.4 29.3667 18.3333 30 18.3333C33.2667 18.3333 36.2167 19.6833 38.3333 21.85ZM28.3333 11.6667H31.6667V15H28.3333V11.6667Z" fill="#605F5F"/>
<path fill-rule="evenodd" clip-rule="evenodd" d="M29.3333 21C33.9333 21 37.6667 24.7333 37.6667 29.3333C37.6667 33.9333 33.9333 37.6667 29.3333 37.6667C24.7333 37.6667 21 33.9333 21 29.3333C21 24.7333 24.7333 21 29.3333 21ZM30.9094 27.2917C30.4843 27.0196 29.9896 26.8749 29.4842 26.8748C29.1133 26.8749 28.7466 26.9528 28.408 27.1035C28.0694 27.2543 27.7666 27.4745 27.5194 27.7497H28.1661C28.2826 27.7497 28.3944 27.7958 28.4768 27.8778C28.5592 27.9598 28.6055 28.0711 28.6055 28.1871C28.6055 28.3031 28.5592 28.4144 28.4768 28.4964C28.3944 28.5784 28.2826 28.6245 28.1661 28.6245H26.7015C26.459 28.6245 26.2622 28.4286 26.2622 28.1871V26.4374C26.2622 26.3214 26.3085 26.2102 26.3909 26.1281C26.4733 26.0461 26.585 26 26.7015 26C26.8181 26 26.9298 26.0461 27.0122 26.1281C27.0946 26.2102 27.1409 26.3214 27.1409 26.4374V26.8912C27.7249 26.3712 28.4667 26.0603 29.2484 26.008C30.0301 25.9556 30.807 26.1647 31.4558 26.6021C32.1045 27.0395 32.5879 27.6801 32.8292 28.4222C33.0704 29.1643 33.0558 29.9654 32.7875 30.6983C32.5193 31.4312 32.0128 32.0539 31.3485 32.4675C30.6843 32.8811 29.9002 33.0619 29.1209 32.9812C28.3416 32.9006 27.6117 32.5631 27.0471 32.0223C26.4825 31.4815 26.1155 30.7684 26.0044 29.9963C25.9879 29.8814 26.018 29.7648 26.0879 29.672C26.1578 29.5792 26.2619 29.5178 26.3773 29.5014C26.4927 29.485 26.6098 29.5149 26.7031 29.5845C26.7963 29.6542 26.8579 29.7578 26.8744 29.8726C26.9462 30.3707 27.1604 30.8376 27.4913 31.2179C27.8222 31.5981 28.2559 31.8757 28.7408 32.0175C29.2257 32.1593 29.7413 32.1594 30.2262 32.0177C30.7111 31.876 31.1449 31.5985 31.4759 31.2183C31.8069 30.8381 32.0211 30.3712 32.0931 29.8732C32.1651 29.3752 32.0918 28.8671 31.8819 28.4095C31.6721 27.9518 31.3345 27.5638 30.9094 27.2917ZM29.6485 27.8778C29.7309 27.9598 29.7771 28.0711 29.7771 28.1871V29.2078H30.5094C30.626 29.2078 30.7377 29.2538 30.8201 29.3359C30.9025 29.4179 30.9488 29.5292 30.9488 29.6452C30.9488 29.7612 30.9025 29.8725 30.8201 29.9545C30.7377 30.0365 30.626 30.0826 30.5094 30.0826H29.3378C29.0952 30.0826 28.8984 29.8866 28.8984 29.6452V28.1871C28.8984 28.0711 28.9447 27.9598 29.0271 27.8778C29.1095 27.7958 29.2212 27.7497 29.3378 27.7497C29.4543 27.7497 29.5661 27.7958 29.6485 27.8778Z" fill="#605F5F"/>
</svg>
