<svg width="37" height="37" viewBox="0 0 37 37" fill="none" xmlns="http://www.w3.org/2000/svg">
<path d="M23.0632 18.0375C23.0004 17.6384 22.8591 17.2558 22.6474 16.9118C22.4357 16.5678 22.1578 16.2692 21.8298 16.0333L14.1215 10.5296C13.0423 9.75875 11.6086 9.75875 10.5448 10.5296L2.8365 16.0333C2.01942 16.6192 1.5415 17.5442 1.5415 18.5462V29.2917C1.5415 30.9875 2.929 32.375 4.62484 32.375H9.24984V23.125H15.4165V32.375H18.0065C17.3436 30.9721 16.9582 29.415 16.9582 27.75C16.9579 25.7205 17.5308 23.7321 18.6109 22.0139C19.6909 20.2956 21.2342 18.9173 23.0632 18.0375ZM35.4582 20.2112V7.66208C35.4582 5.98167 34.1015 4.625 32.4211 4.625H18.4536C16.7732 4.625 15.4165 5.98167 15.4165 7.66208L15.4473 7.73917C15.6015 7.83167 15.7711 7.90875 15.9098 8.01667L23.6182 13.5204C24.8361 14.3838 25.684 15.6787 26.0232 17.0971C26.5936 17.02 27.164 16.9583 27.7498 16.9583C30.7715 16.9583 33.5003 18.2071 35.4582 20.2112ZM26.2082 10.7917H29.2915V13.875H26.2082V10.7917Z" fill="white"/>
<path d="M35.4582 27.75C35.4582 23.495 32.0048 20.0416 27.7498 20.0416C23.4948 20.0416 20.0415 23.495 20.0415 27.75C20.0415 32.005 23.4948 35.4583 27.7498 35.4583C32.0048 35.4583 35.4582 32.005 35.4582 27.75ZM26.979 32.375V28.5208H23.1248V26.9791H26.979V23.125H28.5207V26.9791H32.3748V28.5208H28.5207V32.375H26.979Z" fill="white"/>
</svg>
