<svg width="40" height="40" viewBox="0 0 40 40" fill="none" xmlns="http://www.w3.org/2000/svg">
<path d="M5 20C5 20.442 5.17559 20.8659 5.48816 21.1785C5.80072 21.4911 6.22464 21.6667 6.66667 21.6667H16.6667C17.1087 21.6667 17.5326 21.4911 17.8452 21.1785C18.1577 20.8659 18.3333 20.442 18.3333 20V6.66667C18.3333 6.22464 18.1577 5.80072 17.8452 5.48816C17.5326 5.17559 17.1087 5 16.6667 5H6.66667C6.22464 5 5.80072 5.17559 5.48816 5.48816C5.17559 5.80072 5 6.22464 5 6.66667V20ZM5 33.3333C5 33.7754 5.17559 34.1993 5.48816 34.5118C5.80072 34.8244 6.22464 35 6.66667 35H16.6667C17.1087 35 17.5326 34.8244 17.8452 34.5118C18.1577 34.1993 18.3333 33.7754 18.3333 33.3333V26.6667C18.3333 26.2246 18.1577 25.8007 17.8452 25.4882C17.5326 25.1756 17.1087 25 16.6667 25H6.66667C6.22464 25 5.80072 25.1756 5.48816 25.4882C5.17559 25.8007 5 26.2246 5 26.6667V33.3333ZM21.6667 33.3333C21.6667 33.7754 21.8423 34.1993 22.1548 34.5118C22.4674 34.8244 22.8913 35 23.3333 35H33.3333C33.7754 35 34.1993 34.8244 34.5118 34.5118C34.8244 34.1993 35 33.7754 35 33.3333V20C35 19.558 34.8244 19.134 34.5118 18.8215C34.1993 18.5089 33.7754 18.3333 33.3333 18.3333H23.3333C22.8913 18.3333 22.4674 18.5089 22.1548 18.8215C21.8423 19.134 21.6667 19.558 21.6667 20V33.3333ZM23.3333 5C22.8913 5 22.4674 5.17559 22.1548 5.48816C21.8423 5.80072 21.6667 6.22464 21.6667 6.66667V13.3333C21.6667 13.7754 21.8423 14.1993 22.1548 14.5118C22.4674 14.8244 22.8913 15 23.3333 15H33.3333C33.7754 15 34.1993 14.8244 34.5118 14.5118C34.8244 14.1993 35 13.7754 35 13.3333V6.66667C35 6.22464 34.8244 5.80072 34.5118 5.48816C34.1993 5.17559 33.7754 5 33.3333 5H23.3333Z" fill="#605F5F"/>
</svg>
