<svg width="386" height="73" viewBox="0 0 386 73" fill="none" xmlns="http://www.w3.org/2000/svg">
<path d="M81.415 59L73.155 48.15V59H67.17V34.43H73.155V45.21L81.345 34.43H88.38L78.86 46.47L88.73 59H81.415ZM90.3843 49.2C90.3843 47.1933 90.7576 45.4317 91.5043 43.915C92.2743 42.3983 93.3126 41.2317 94.6193 40.415C95.926 39.5983 97.3843 39.19 98.9943 39.19C100.371 39.19 101.573 39.47 102.599 40.03C103.649 40.59 104.454 41.325 105.014 42.235V39.47H110.999V59H105.014V56.235C104.431 57.145 103.614 57.88 102.564 58.44C101.538 59 100.336 59.28 98.9593 59.28C97.3726 59.28 95.926 58.8717 94.6193 58.055C93.3126 57.215 92.2743 56.0367 91.5043 54.52C90.7576 52.98 90.3843 51.2067 90.3843 49.2ZM105.014 49.235C105.014 47.7417 104.594 46.5633 103.754 45.7C102.938 44.8367 101.934 44.405 100.744 44.405C99.5543 44.405 98.5393 44.8367 97.6993 45.7C96.8826 46.54 96.4743 47.7067 96.4743 49.2C96.4743 50.6933 96.8826 51.8833 97.6993 52.77C98.5393 53.6333 99.5543 54.065 100.744 54.065C101.934 54.065 102.938 53.6333 103.754 52.77C104.594 51.9067 105.014 50.7283 105.014 49.235ZM121.314 42.725C122.014 41.6517 122.889 40.8117 123.939 40.205C124.989 39.575 126.156 39.26 127.439 39.26V45.595H125.794C124.301 45.595 123.181 45.9217 122.434 46.575C121.688 47.205 121.314 48.325 121.314 49.935V59H115.329V39.47H121.314V42.725ZM141.185 53.925V59H138.14C135.97 59 134.278 58.475 133.065 57.425C131.852 56.3517 131.245 54.6133 131.245 52.21V44.44H128.865V39.47H131.245V34.71H137.23V39.47H141.15V44.44H137.23V52.28C137.23 52.8633 137.37 53.2833 137.65 53.54C137.93 53.7967 138.397 53.925 139.05 53.925H141.185ZM156.524 39.26C158.764 39.26 160.56 40.0067 161.914 41.5C163.267 42.97 163.944 45 163.944 47.59V59H157.994V48.395C157.994 47.0883 157.655 46.0733 156.979 45.35C156.302 44.6267 155.392 44.265 154.249 44.265C153.105 44.265 152.195 44.6267 151.519 45.35C150.842 46.0733 150.504 47.0883 150.504 48.395V59H144.519V33.1H150.504V42.095C151.11 41.2317 151.939 40.5433 152.989 40.03C154.039 39.5167 155.217 39.26 156.524 39.26ZM171.113 37.44C170.063 37.44 169.199 37.1367 168.523 36.53C167.869 35.9 167.543 35.13 167.543 34.22C167.543 33.2867 167.869 32.5167 168.523 31.91C169.199 31.28 170.063 30.965 171.113 30.965C172.139 30.965 172.979 31.28 173.633 31.91C174.309 32.5167 174.648 33.2867 174.648 34.22C174.648 35.13 174.309 35.9 173.633 36.53C172.979 37.1367 172.139 37.44 171.113 37.44ZM174.088 39.47V59H168.103V39.47H174.088ZM190.36 59L184.41 50.81V59H178.425V33.1H184.41V47.415L190.325 39.47H197.71L189.59 49.27L197.78 59H190.36ZM218.471 48.92C218.471 49.48 218.436 50.0633 218.366 50.67H204.821C204.914 51.8833 205.299 52.8167 205.976 53.47C206.676 54.1 207.527 54.415 208.531 54.415C210.024 54.415 211.062 53.785 211.646 52.525H218.016C217.689 53.8083 217.094 54.9633 216.231 55.99C215.391 57.0167 214.329 57.8217 213.046 58.405C211.762 58.9883 210.327 59.28 208.741 59.28C206.827 59.28 205.124 58.8717 203.631 58.055C202.137 57.2383 200.971 56.0717 200.131 54.555C199.291 53.0383 198.871 51.265 198.871 49.235C198.871 47.205 199.279 45.4317 200.096 43.915C200.936 42.3983 202.102 41.2317 203.596 40.415C205.089 39.5983 206.804 39.19 208.741 39.19C210.631 39.19 212.311 39.5867 213.781 40.38C215.251 41.1733 216.394 42.305 217.211 43.775C218.051 45.245 218.471 46.96 218.471 48.92ZM212.346 47.345C212.346 46.3183 211.996 45.5017 211.296 44.895C210.596 44.2883 209.721 43.985 208.671 43.985C207.667 43.985 206.816 44.2767 206.116 44.86C205.439 45.4433 205.019 46.2717 204.856 47.345H212.346ZM241.578 39.47L229.328 68.275H222.888L227.368 58.335L219.423 39.47H226.108L230.623 51.685L235.103 39.47H241.578ZM242.552 49.2C242.552 47.1933 242.926 45.4317 243.672 43.915C244.442 42.3983 245.481 41.2317 246.787 40.415C248.094 39.5983 249.552 39.19 251.162 39.19C252.539 39.19 253.741 39.47 254.767 40.03C255.817 40.59 256.622 41.325 257.182 42.235V39.47H263.167V59H257.182V56.235C256.599 57.145 255.782 57.88 254.732 58.44C253.706 59 252.504 59.28 251.127 59.28C249.541 59.28 248.094 58.8717 246.787 58.055C245.481 57.215 244.442 56.0367 243.672 54.52C242.926 52.98 242.552 51.2067 242.552 49.2ZM257.182 49.235C257.182 47.7417 256.762 46.5633 255.922 45.7C255.106 44.8367 254.102 44.405 252.912 44.405C251.722 44.405 250.707 44.8367 249.867 45.7C249.051 46.54 248.642 47.7067 248.642 49.2C248.642 50.6933 249.051 51.8833 249.867 52.77C250.707 53.6333 251.722 54.065 252.912 54.065C254.102 54.065 255.106 53.6333 255.922 52.77C256.762 51.9067 257.182 50.7283 257.182 49.235ZM291.224 42.2C290.781 41.3833 290.139 40.765 289.299 40.345C288.482 39.9017 287.514 39.68 286.394 39.68C284.457 39.68 282.906 40.3217 281.739 41.605C280.572 42.865 279.989 44.5567 279.989 46.68C279.989 48.9433 280.596 50.7167 281.809 52C283.046 53.26 284.737 53.89 286.884 53.89C288.354 53.89 289.591 53.5167 290.594 52.77C291.621 52.0233 292.367 50.95 292.834 49.55H285.239V45.14H298.259V50.705C297.816 52.1983 297.057 53.5867 295.984 54.87C294.934 56.1533 293.592 57.1917 291.959 57.985C290.326 58.7783 288.482 59.175 286.429 59.175C284.002 59.175 281.832 58.65 279.919 57.6C278.029 56.5267 276.547 55.045 275.474 53.155C274.424 51.265 273.899 49.1067 273.899 46.68C273.899 44.2533 274.424 42.095 275.474 40.205C276.547 38.2917 278.029 36.81 279.919 35.76C281.809 34.6867 283.967 34.15 286.394 34.15C289.334 34.15 291.807 34.8617 293.814 36.285C295.844 37.7083 297.186 39.68 297.839 42.2H291.224ZM307.559 42.725C308.259 41.6517 309.134 40.8117 310.184 40.205C311.234 39.575 312.401 39.26 313.684 39.26V45.595H312.039C310.546 45.595 309.426 45.9217 308.679 46.575C307.933 47.205 307.559 48.325 307.559 49.935V59H301.574V39.47H307.559V42.725ZM315.355 49.2C315.355 47.1933 315.728 45.4317 316.475 43.915C317.245 42.3983 318.283 41.2317 319.59 40.415C320.897 39.5983 322.355 39.19 323.965 39.19C325.342 39.19 326.543 39.47 327.57 40.03C328.62 40.59 329.425 41.325 329.985 42.235V39.47H335.97V59H329.985V56.235C329.402 57.145 328.585 57.88 327.535 58.44C326.508 59 325.307 59.28 323.93 59.28C322.343 59.28 320.897 58.8717 319.59 58.055C318.283 57.215 317.245 56.0367 316.475 54.52C315.728 52.98 315.355 51.2067 315.355 49.2ZM329.985 49.235C329.985 47.7417 329.565 46.5633 328.725 45.7C327.908 44.8367 326.905 44.405 325.715 44.405C324.525 44.405 323.51 44.8367 322.67 45.7C321.853 46.54 321.445 47.7067 321.445 49.2C321.445 50.6933 321.853 51.8833 322.67 52.77C323.51 53.6333 324.525 54.065 325.715 54.065C326.905 54.065 327.908 53.6333 328.725 52.77C329.565 51.9067 329.985 50.7283 329.985 49.235ZM352.2 39.26C354.487 39.26 356.307 40.0067 357.66 41.5C359.037 42.97 359.725 45 359.725 47.59V59H353.775V48.395C353.775 47.0883 353.437 46.0733 352.76 45.35C352.083 44.6267 351.173 44.265 350.03 44.265C348.887 44.265 347.977 44.6267 347.3 45.35C346.623 46.0733 346.285 47.0883 346.285 48.395V59H340.3V39.47H346.285V42.06C346.892 41.1967 347.708 40.52 348.735 40.03C349.762 39.5167 350.917 39.26 352.2 39.26ZM362.694 49.2C362.694 47.1933 363.067 45.4317 363.814 43.915C364.584 42.3983 365.622 41.2317 366.929 40.415C368.236 39.5983 369.694 39.19 371.304 39.19C372.587 39.19 373.754 39.4583 374.804 39.995C375.877 40.5317 376.717 41.255 377.324 42.165V33.1H383.309V59H377.324V56.2C376.764 57.1333 375.959 57.88 374.909 58.44C373.882 59 372.681 59.28 371.304 59.28C369.694 59.28 368.236 58.8717 366.929 58.055C365.622 57.215 364.584 56.0367 363.814 54.52C363.067 52.98 362.694 51.2067 362.694 49.2ZM377.324 49.235C377.324 47.7417 376.904 46.5633 376.064 45.7C375.247 44.8367 374.244 44.405 373.054 44.405C371.864 44.405 370.849 44.8367 370.009 45.7C369.192 46.54 368.784 47.7067 368.784 49.2C368.784 50.6933 369.192 51.8833 370.009 52.77C370.849 53.6333 371.864 54.065 373.054 54.065C374.244 54.065 375.247 53.6333 376.064 52.77C376.904 51.9067 377.324 50.7283 377.324 49.235Z" fill="#343C6A"/>
<path d="M27.9999 47.0001H16.8893V69.0001H27.9999V47.0001Z" stroke="#0023C4" stroke-width="5" stroke-linecap="round" stroke-linejoin="round"/>
<path d="M53 69H3M39.1107 69H5.77733V20.3061C5.7451 19.5063 5.91244 18.7147 6.25369 18.0525C6.59495 17.3903 7.0913 16.8941 7.66667 16.64L39.1107 3V69ZM39.1107 69V25H47.444C47.8088 24.9998 48.1701 25.0944 48.5072 25.2786C48.8444 25.4627 49.1507 25.7327 49.4087 26.0731C49.6668 26.4136 49.8715 26.8178 50.0111 27.2627C50.1508 27.7076 50.2227 28.1845 50.2227 28.6661V69H39.1107Z" stroke="#0023C4" stroke-width="5" stroke-linecap="round" stroke-linejoin="round"/>
</svg>
