<svg width="40" height="40" viewBox="0 0 40 40" fill="none" xmlns="http://www.w3.org/2000/svg">
<path d="M24.9333 19.5C24.8655 19.0686 24.7127 18.6549 24.4838 18.283C24.255 17.9111 23.9545 17.5883 23.6 17.3333L15.2667 11.3833C14.1 10.55 12.55 10.55 11.4 11.3833L3.06666 17.3333C2.18332 17.9667 1.66666 18.9667 1.66666 20.05V31.6667C1.66666 33.5 3.16666 35 4.99999 35H9.99999V25H16.6667V35H19.4667C18.75 33.4833 18.3333 31.8 18.3333 30C18.3331 27.8059 18.9524 25.6564 20.12 23.7988C21.2876 21.9412 22.9561 20.4511 24.9333 19.5ZM38.3333 21.85V8.28333C38.3333 6.46667 36.8667 5 35.05 5H19.95C18.1333 5 16.6667 6.46667 16.6667 8.28333L16.7 8.36667C16.8667 8.46667 17.05 8.55 17.2 8.66667L25.5333 14.6167C26.85 15.55 27.7667 16.95 28.1333 18.4833C28.75 18.4 29.3667 18.3333 30 18.3333C33.2667 18.3333 36.2167 19.6833 38.3333 21.85ZM28.3333 11.6667H31.6667V15H28.3333V11.6667Z" fill="#605F5F"/>
<path d="M38.3333 30C38.3333 25.4 34.6 21.6667 30 21.6667C25.4 21.6667 21.6667 25.4 21.6667 30C21.6667 34.6 25.4 38.3333 30 38.3333C34.6 38.3333 38.3333 34.6 38.3333 30ZM29.1667 35V30.8333H25V29.1667H29.1667V25H30.8333V29.1667H35V30.8333H30.8333V35H29.1667Z" fill="#605F5F"/>
</svg>
