<svg width="18" height="20" viewBox="0 0 18 20" fill="none" xmlns="http://www.w3.org/2000/svg">
<path d="M8.18172 20C6.49062 20 5.11353 18.5983 5.11353 16.875C5.11353 16.53 5.38843 16.25 5.72716 16.25C6.06589 16.25 6.3408 16.53 6.3408 16.875C6.3408 17.9092 7.16718 18.75 8.18172 18.75C9.19626 18.75 10.0226 17.9092 10.0226 16.875C10.0226 16.53 10.2975 16.25 10.6363 16.25C10.975 16.25 11.2499 16.53 11.2499 16.875C11.2499 18.5983 9.87297 20 8.18172 20V20Z" fill="#343C6A"/>
<path d="M14.9318 17.5H1.43177C0.642253 17.5 0 16.8459 0 16.0417C0 15.6149 0.182473 15.2109 0.500678 14.9333C0.521203 14.915 0.543225 14.8984 0.566147 14.8833C1.76721 13.8158 2.45455 12.28 2.45455 10.6583V8.33328C2.45455 5.11673 5.02446 2.5 8.18179 2.5C8.31273 2.5 8.4543 2.50244 8.58524 2.52502C8.91977 2.58163 9.14569 2.90421 9.08996 3.24417C9.03438 3.58414 8.71198 3.81424 8.38389 3.75748C8.31842 3.74664 8.24651 3.75 8.18179 3.75C5.70117 3.75 3.68183 5.80582 3.68183 8.33328V10.6583C3.68183 12.6717 2.8153 14.5767 1.30668 15.8841C1.29439 15.8942 1.28376 15.9033 1.27057 15.9125C1.24855 15.9409 1.22728 15.9842 1.22728 16.0417C1.22728 16.1549 1.32061 16.25 1.43177 16.25H14.9318C15.0431 16.25 15.1365 16.1549 15.1365 16.0417C15.1365 15.9833 15.1152 15.9409 15.0923 15.9125C15.08 15.9033 15.0693 15.8942 15.0571 15.8841C13.5475 14.5758 12.6819 12.6717 12.6819 10.6583V9.75006C12.6819 9.40506 12.9568 9.12506 13.2955 9.12506C13.6343 9.12506 13.9092 9.40506 13.9092 9.75006V10.6583C13.9092 12.2809 14.5973 13.8174 15.8 14.8859C15.822 14.9008 15.8433 14.9167 15.8629 14.9342C16.1813 15.2109 16.3637 15.6149 16.3637 16.0417C16.3637 16.8459 15.7215 17.5 14.9318 17.5Z" fill="#343C6A"/>
<path d="M13.9091 8.33328C11.6533 8.33328 9.81812 6.46423 9.81812 4.16672C9.81812 1.8692 11.6533 0 13.9091 0C16.1648 0 17.9999 1.8692 17.9999 4.16672C17.9999 6.46423 16.1648 8.33328 13.9091 8.33328V8.33328ZM13.9091 1.25C12.3299 1.25 11.0454 2.55829 11.0454 4.16672C11.0454 5.77499 12.3299 7.08328 13.9091 7.08328C15.4881 7.08328 16.7726 5.77499 16.7726 4.16672C16.7726 2.55829 15.4881 1.25 13.9091 1.25V1.25Z" fill="#343C6A"/>
</svg>
