<svg width="40" height="40" viewBox="0 0 40 40" fill="none" xmlns="http://www.w3.org/2000/svg">
<path d="M25.4167 3.36667H14.5833C11.601 3.37108 8.74209 4.55776 6.63326 6.66659C4.52443 8.77542 3.33775 11.6343 3.33334 14.6167V25.3833C3.33775 28.3657 4.52443 31.2246 6.63326 33.3334C8.74209 35.4422 11.601 36.6289 14.5833 36.6333H25.4167C28.399 36.6289 31.2579 35.4422 33.3668 33.3334C35.4756 31.2246 36.6623 28.3657 36.6667 25.3833V14.55C36.6447 11.5792 35.4503 8.7374 33.3433 6.64295C31.2364 4.5485 28.3875 3.37098 25.4167 3.36667ZM28.75 25.2333C28.7378 25.3702 28.692 25.5018 28.6167 25.6167C28.5619 25.7128 28.4725 25.7844 28.3667 25.8167C28.2353 25.8491 28.098 25.8491 27.9667 25.8167H12.05C11.75 25.8167 11.5 25.8167 11.4333 25.6667C11.3167 25.3607 11.3167 25.0226 11.4333 24.7167C11.6367 24.2233 11.8978 23.7622 12.2167 23.3333C12.9631 22.4224 13.4163 21.3068 13.5167 20.1333C13.5167 16.8 13.5167 16.3333 14.8833 14.7C15.3158 14.2016 15.8426 13.7938 16.4333 13.5L17.3833 13.0333C17.7025 12.883 17.978 12.6535 18.1833 12.3667C18.4333 12.07 18.6 11.715 18.6667 11.3333C18.7162 11.0347 18.8697 10.7631 19.1 10.5667C19.3158 10.4033 19.5794 10.3154 19.85 10.3167H20.1C20.2546 10.2923 20.4121 10.2923 20.5667 10.3167C20.7056 10.3671 20.8351 10.4404 20.95 10.5333C21.0767 10.6279 21.1821 10.748 21.2596 10.8857C21.3371 11.0235 21.3849 11.176 21.4 11.3333C21.4733 11.6667 21.61 11.9833 21.8 12.2667C22.015 12.5783 22.3 12.8367 22.6333 13.0167L23.55 13.4667C24.1467 13.75 24.6767 14.16 25.1 14.6667C26.4667 16.3333 26.4667 16.8167 26.4667 20.1C26.5967 21.325 27.0833 22.4833 27.8667 23.4333C28.1945 23.88 28.4667 24.3578 28.6833 24.8667C28.735 24.9818 28.7467 25.1108 28.7167 25.2333H28.75ZM22.8667 28.95C22.5067 29.32 22.0667 29.6033 21.5833 29.7833C21.0867 29.9864 20.553 30.0829 20.0167 30.0667C19.5116 30.0532 19.0115 29.9633 18.5333 29.8C17.6437 29.4294 16.9245 28.7399 16.5167 27.8667H23.6C23.4197 28.2755 23.1589 28.6439 22.8333 28.95H22.8667Z" fill="#605F5F"/>
</svg>
