<svg width="40" height="40" viewBox="0 0 40 40" fill="none" xmlns="http://www.w3.org/2000/svg">
<path fill-rule="evenodd" clip-rule="evenodd" d="M8 8C8 6.93913 8.42143 5.92172 9.17157 5.17157C9.92172 4.42143 10.9391 4 12 4H28C29.0609 4 30.0783 4.42143 30.8284 5.17157C31.5786 5.92172 32 6.93913 32 8V32C32.5304 32 33.0391 32.2107 33.4142 32.5858C33.7893 32.9609 34 33.4696 34 34C34 34.5304 33.7893 35.0391 33.4142 35.4142C33.0391 35.7893 32.5304 36 32 36H26C25.4696 36 24.9609 35.7893 24.5858 35.4142C24.2107 35.0391 24 34.5304 24 34V30C24 29.4696 23.7893 28.9609 23.4142 28.5858C23.0391 28.2107 22.5304 28 22 28H18C17.4696 28 16.9609 28.2107 16.5858 28.5858C16.2107 28.9609 16 29.4696 16 30V34C16 34.5304 15.7893 35.0391 15.4142 35.4142C15.0391 35.7893 14.5304 36 14 36H8C7.46957 36 6.96086 35.7893 6.58579 35.4142C6.21071 35.0391 6 34.5304 6 34C6 33.4696 6.21071 32.9609 6.58579 32.5858C6.96086 32.2107 7.46957 32 8 32V8ZM14 10H18V14H14V10ZM18 18H14V22H18V18ZM22 10H26V14H22V10ZM26 18H22V22H26V18Z" fill="white"/>
</svg>
