<svg width="25" height="25" viewBox="0 0 25 25" fill="none" xmlns="http://www.w3.org/2000/svg">
<path d="M21.6454 20.5434L17.1378 16.0357C18.2551 14.6735 18.9286 12.9286 18.9286 11.0268C18.9286 6.66454 15.389 3.125 11.0268 3.125C6.66071 3.125 3.125 6.66454 3.125 11.0268C3.125 15.389 6.66071 18.9286 11.0268 18.9286C12.9286 18.9286 14.6696 18.2589 16.0319 17.1416L20.5395 21.6454C20.8457 21.9515 21.3393 21.9515 21.6454 21.6454C21.9515 21.3431 21.9515 20.8457 21.6454 20.5434ZM11.0268 17.3559C7.53316 17.3559 4.69388 14.5166 4.69388 11.0268C4.69388 7.53699 7.53316 4.69388 11.0268 4.69388C14.5166 4.69388 17.3597 7.53699 17.3597 11.0268C17.3597 14.5166 14.5166 17.3559 11.0268 17.3559Z" fill="#343C6A"/>
</svg>
