<svg width="40" height="40" viewBox="0 0 40 40" fill="none" xmlns="http://www.w3.org/2000/svg">
<path d="M29.6985 16.4141H29.1678C28.9954 15.8745 28.7778 15.3504 28.5172 14.8468L28.8931 14.4709C29.8045 13.5605 29.7801 12.1016 28.8934 11.2158L27.7845 10.1069C26.8993 9.22056 25.44 9.19487 24.5293 10.1066L24.1532 10.4828C23.6496 10.2222 23.1254 10.0046 22.5859 9.83223V9.30142C22.5859 8.03242 21.5535 7 20.2845 7H18.7155C17.4465 7 16.4141 8.03242 16.4141 9.30142V9.83223C15.8746 10.0046 15.3504 10.2222 14.8468 10.4828L14.471 10.1069C13.5622 9.19702 12.1029 9.21836 11.2159 10.1066L10.1069 11.2156C9.22056 12.1009 9.19492 13.56 10.1066 14.4707L10.4828 14.8469C10.2222 15.3504 10.0046 15.8745 9.83223 16.4141H9.30146C8.03247 16.4141 7 17.4465 7 18.7155V20.2845C7 21.5535 8.03247 22.5859 9.30146 22.5859H9.83223C10.0046 23.1255 10.2222 23.6496 10.4828 24.1532L10.1069 24.5291C9.19551 25.4395 9.21992 26.8984 10.1066 27.7842L11.2155 28.8931C12.1007 29.7794 13.56 29.8051 14.4707 28.8934L14.8468 28.5172C15.3504 28.7778 15.8746 28.9954 16.4141 29.1678V29.6986C16.4141 30.9676 17.4465 32 18.7155 32H20.2845C21.5535 32 22.586 30.9676 22.586 29.6986V29.1678C23.1255 28.9954 23.6497 28.7778 24.1532 28.5172L24.5291 28.8931C25.4379 29.803 26.8971 29.7816 27.7841 28.8934L28.8932 27.7844C29.7795 26.899 29.8051 25.4399 28.8935 24.5292L28.5173 24.1531C28.7779 23.6495 28.9954 23.1254 29.1678 22.5858H29.6986C30.9676 22.5858 32 21.5534 32 20.2844V18.7154C32 17.4465 30.9675 16.4141 29.6985 16.4141V16.4141ZM19.5 24.9395C16.5006 24.9395 14.0605 22.4993 14.0605 19.5C14.0605 16.5007 16.5006 14.0605 19.5 14.0605C22.4994 14.0605 24.9395 16.5007 24.9395 19.5C24.9395 22.4993 22.4994 24.9395 19.5 24.9395Z" fill="#605F5F"/>
</svg>
