<svg width="40" height="40" viewBox="0 0 40 40" fill="none" xmlns="http://www.w3.org/2000/svg">
<path fill-rule="evenodd" clip-rule="evenodd" d="M10.81 7.25917C12.8392 6.24333 16.2683 5 20.0325 5H20.0333C23.7258 5 27.0733 6.1975 29.0925 7.2025C29.5774 7.4396 30.0474 7.70592 30.5 8L28.3175 11.1908L27.0842 11.8308C22.8367 13.9733 17.1417 13.9733 12.895 11.8308L11.8083 11.3983L9.50001 8C9.71334 7.85917 9.98167 7.69917 10.2967 7.5275C10.4556 7.44028 10.6267 7.35083 10.81 7.25917ZM12.2475 8.24C13.0405 8.49029 13.8478 8.69287 14.665 8.84667C16.4633 9.17917 18.275 9.2275 19.825 8.77917C21.795 8.21 23.8625 7.7475 25.8 7.475C24.1467 6.93 22.1475 6.5 20.0333 6.5C16.9808 6.5 14.1483 7.39583 12.2475 8.24ZM27.76 13.17L27.965 13.0667C34.9283 20.5083 40.4167 34.9975 20.0325 34.9975C-0.351662 34.9975 5.00667 20.7725 12.0258 13.0717L12.22 13.17C16.8917 15.5267 23.0883 15.5267 27.76 13.17ZM24.1667 22.4536V21.5071C24.1667 21.4204 24.1388 21.3493 24.0831 21.2936C24.0275 21.2379 23.9563 21.2101 23.8697 21.2101H22.2828C22.1777 20.6966 21.9797 20.2512 21.6889 19.8738H23.8511C23.9378 19.8738 24.0089 19.846 24.0646 19.7903C24.1203 19.7346 24.1481 19.6634 24.1481 19.5768V18.6303C24.1481 18.5437 24.1203 18.4725 24.0646 18.4169C24.0089 18.3612 23.9378 18.3333 23.8511 18.3333H16.1303C16.0437 18.3333 15.9725 18.3612 15.9168 18.4169C15.8612 18.4725 15.8333 18.5437 15.8333 18.6303V19.8645C15.8333 19.9449 15.8627 20.0145 15.9215 20.0733C15.9803 20.1321 16.0499 20.1615 16.1303 20.1615H17.4759C18.7812 20.1615 19.6102 20.511 19.9629 21.2101H16.1303C16.0437 21.2101 15.9725 21.2379 15.9168 21.2936C15.8612 21.3493 15.8333 21.4204 15.8333 21.5071V22.4536C15.8333 22.5402 15.8612 22.6114 15.9168 22.667C15.9725 22.7227 16.0437 22.7506 16.1303 22.7506H20.0928C19.9567 23.2579 19.6396 23.6445 19.1416 23.9105C18.6436 24.1766 17.9863 24.3096 17.1696 24.3096H16.1303C16.0499 24.3096 15.9803 24.339 15.9215 24.3977C15.8627 24.4565 15.8333 24.5261 15.8333 24.6065V25.7851C15.8333 25.8655 15.8612 25.9336 15.9168 25.9892C17.1047 27.2513 18.6451 29.0176 20.5382 31.288C20.5939 31.3623 20.6712 31.3994 20.7702 31.3994H22.5798C22.7097 31.3994 22.7994 31.3437 22.8489 31.2324C22.9108 31.121 22.8984 31.0158 22.8118 30.9169C21.0053 28.7021 19.5855 27.044 18.5523 25.9428C19.6041 25.8191 20.4578 25.4788 21.1136 24.922C21.7694 24.3653 22.1684 23.6414 22.3107 22.7506H23.8697C23.9563 22.7506 24.0275 22.7227 24.0831 22.667C24.1388 22.6114 24.1667 22.5402 24.1667 22.4536Z" fill="#605F5F"/>
</svg>
