<svg width="18" height="18" viewBox="0 0 18 18" fill="none" xmlns="http://www.w3.org/2000/svg">
<path d="M17.24 17.1741C17.8344 17.0537 18.1897 16.4487 17.8936 15.9315C17.241 14.7935 16.2137 13.7927 14.9 13.0306C13.2072 12.0486 11.1321 11.5157 9 11.5157C6.86786 11.5157 4.7928 12.0476 3.10001 13.0306C1.78627 13.7927 0.758971 14.7935 0.106408 15.9315C-0.189722 16.4487 0.165634 17.0537 0.760048 17.1741C6.1946 18.2753 11.8043 18.2753 17.2389 17.1741" fill="#343C6A"/>
<path d="M9.00015 10.4688C11.9738 10.4688 14.3843 8.12529 14.3843 5.23441C14.3843 2.34352 11.9738 0 9.00015 0C6.02655 0 3.61597 2.34352 3.61597 5.23441C3.61597 8.12529 6.02655 10.4688 9.00015 10.4688Z" fill="#343C6A"/>
</svg>
