<svg width="18" height="18" viewBox="0 0 18 18" fill="none" xmlns="http://www.w3.org/2000/svg">
<path d="M16.3429 6.77811H15.9608C15.8366 6.38964 15.68 6.01227 15.4924 5.6497L15.763 5.37907C16.4192 4.72358 16.4016 3.67312 15.7632 3.03538L14.9648 2.23699C14.3274 1.5988 13.2768 1.58031 12.6211 2.23674L12.3503 2.50759C11.9877 2.31999 11.6103 2.16334 11.2219 2.0392V1.65702C11.2219 0.743342 10.4785 0 9.5648 0H8.43513C7.52145 0 6.77811 0.743342 6.77811 1.65702V2.0392C6.38967 2.1633 6.01227 2.31996 5.6497 2.50759L5.37911 2.23699C4.72474 1.58185 3.6741 1.59722 3.03546 2.23678L2.23695 3.03521C1.5988 3.67266 1.58034 4.7232 2.23674 5.3789L2.50759 5.64974C2.31996 6.0123 2.16334 6.38964 2.0392 6.77815H1.65705C0.743377 6.77811 0 7.52145 0 8.43513V9.56484C0 10.4785 0.743377 11.2219 1.65705 11.2219H2.0392C2.16334 11.6103 2.31996 11.9877 2.50759 12.3503L2.23695 12.6209C1.58076 13.2764 1.59834 14.3268 2.23674 14.9646L3.03517 15.763C3.67252 16.4012 4.7232 16.4197 5.37886 15.7632L5.6497 15.4924C6.01227 15.68 6.38967 15.8366 6.77811 15.9608V16.3429C6.77811 17.2566 7.52149 18 8.43516 18H9.56484C10.4785 18 11.2219 17.2566 11.2219 16.3429V15.9608C11.6103 15.8367 11.9877 15.68 12.3503 15.4924L12.6209 15.763C13.2753 16.4181 14.3259 16.4028 14.9645 15.7632L15.763 14.9647C16.4012 14.3273 16.4197 13.2767 15.7633 12.621L15.4924 12.3502C15.68 11.9876 15.8367 11.6103 15.9608 11.2218H16.3429C17.2566 11.2218 18 10.4784 18 9.56477V8.43506C18 7.52145 17.2566 6.77811 16.3429 6.77811V6.77811ZM8.99998 12.9164C6.84044 12.9164 5.08358 11.1595 5.08358 8.99998C5.08358 6.84048 6.84044 5.08358 8.99998 5.08358C11.1595 5.08358 12.9164 6.84048 12.9164 8.99998C12.9164 11.1595 11.1595 12.9164 8.99998 12.9164Z" fill="#343C6A"/>
</svg>
